<?xml version="1.0" encoding="utf-8"?>
<!-- Generator: Adobe Illustrator 18.1.0, SVG Export Plug-In . SVG Version: 6.00 Build 0)  -->
<!DOCTYPE svg PUBLIC "-//W3C//DTD SVG 1.1//EN" "http://www.w3.org/Graphics/SVG/1.1/DTD/svg11.dtd">
<svg version="1.1" id="Layer_1" xmlns="http://www.w3.org/2000/svg" xmlns:xlink="http://www.w3.org/1999/xlink" x="0px" y="0px"
	 viewBox="0 0 400 300" enable-background="new 0 0 400 300" xml:space="preserve">
<path fill="#2979FF" d="M349.9,140.7c-2.6-54-35.2-105.2-84.6-127.5C212.1-11.1,147.4-1,103.1,36.7c-42.2,35.7-62,93.3-50.1,147.2
	c11.9,53.6,52.8,97.2,106.1,111.4c62.9,16.8,120.5-12.9,155.9-64.7c-32.1,42.9-80.5,71.1-135.3,61.6c-54-9.3-98.3-50.4-110.7-104
	C55.8,131.1,82.2,71.4,133.1,42.6C185.7,12.6,258.8,23.6,294,75c8.8,12.9,14.8,27.6,18.1,42.7c2.8,12.9,1.6,25.8,3.4,38.5
	c1.6,11.2,11.7,27.1,24.6,18.6C351.4,167.4,350.7,152.3,349.9,140.7C349.8,137.4,350.4,147.1,349.9,140.7z"/>
</svg>
